<?xml version="1.0" encoding="UTF-8" standalone="no"?>
<svg width="14" height="14" viewBox="0 0 14 14" fill="none" xmlns="http://www.w3.org/2000/svg">
    <path d="M12.6491 1.35092C12.181 0.883027 11.4224 0.883027 10.9543 1.35092L7.00751 5.29774L3.06068 1.35092C2.5904 0.896702 1.84285 0.903198 1.38053 1.36552C0.918212 1.82784 0.911716 2.57538 1.36593 3.04567L5.31276 6.99249L1.36593 10.9393C1.05436 11.2402 0.929406 11.6859 1.03909 12.1049C1.14878 12.524 1.47604 12.8512 1.89508 12.9609C2.31413 13.0706 2.75976 12.9456 3.06068 12.6341L7.00751 8.68724L10.9543 12.6341C11.4246 13.0883 12.1722 13.0818 12.6345 12.6195C13.0968 12.1571 13.1033 11.4096 12.6491 10.9393L8.70226 6.99249L12.6491 3.04567C13.117 2.57763 13.117 1.81895 12.6491 1.35092Z" fill="#555555"/>
</svg>
